<?xml version="1.0" encoding="UTF-8"?>
<svg width="512" height="384" viewBox="0 0 512 384" xmlns="http://www.w3.org/2000/svg">
  <!-- 배경 -->
  <rect width="512" height="384" fill="#f0f9ff"/>
  
  <!-- 도로 -->
  <rect x="50" y="280" width="420" height="30" fill="#94a3b8"/>
  <rect x="50" y="280" width="420" height="5" fill="#475569"/>
  <rect x="50" y="305" width="420" height="5" fill="#475569"/>
  
  <!-- 도로 라인 -->
  <rect x="70" y="293" width="40" height="4" fill="white"/>
  <rect x="140" y="293" width="40" height="4" fill="white"/>
  <rect x="210" y="293" width="40" height="4" fill="white"/>
  <rect x="280" y="293" width="40" height="4" fill="white"/>
  <rect x="350" y="293" width="40" height="4" fill="white"/>
  <rect x="420" y="293" width="40" height="4" fill="white"/>
  
  <!-- 모바일 행정차량 -->
  <g transform="translate(280, 250)">
    <!-- 차량 몸체 -->
    <rect x="0" y="0" width="180" height="70" rx="10" fill="#3b82f6"/>
    <rect x="0" y="40" width="180" height="30" rx="5" fill="#1d4ed8"/>
    
    <!-- 창문 -->
    <rect x="20" y="10" width="40" height="25" rx="5" fill="#dbeafe"/>
    <rect x="70" y="10" width="40" height="25" rx="5" fill="#dbeafe"/>
    <rect x="120" y="10" width="40" height="25" rx="5" fill="#dbeafe"/>
    
    <!-- 부천시 로고 -->
    <rect x="5" y="45" width="60" height="20" rx="3" fill="white"/>
    <text x="10" y="60" font-family="Arial" font-size="14" font-weight="bold" fill="#1d4ed8">부천시</text>
    
    <!-- 행정차량 텍스트 -->
    <rect x="85" y="45" width="90" height="20" rx="3" fill="white"/>
    <text x="90" y="60" font-family="Arial" font-size="12" font-weight="bold" fill="#1d4ed8">행정서비스</text>
    
    <!-- 바퀴 -->
    <circle cx="40" cy="80" r="15" fill="#1e293b"/>
    <circle cx="40" cy="80" r="7" fill="#94a3b8"/>
    <circle cx="140" cy="80" r="15" fill="#1e293b"/>
    <circle cx="140" cy="80" r="7" fill="#94a3b8"/>
    
    <!-- 안테나 -->
    <rect x="20" y="-15" width="4" height="15" fill="#475569"/>
    <circle cx="22" cy="-18" r="4" fill="#ef4444"/>
  </g>
  
  <!-- 건물 및 배경 요소 -->
  <g transform="translate(50, 100)">
    <!-- 건물 1 -->
    <rect x="20" y="50" width="80" height="130" fill="#94a3b8"/>
    <rect x="30" y="70" width="15" height="20" fill="#dbeafe"/>
    <rect x="55" y="70" width="15" height="20" fill="#dbeafe"/>
    <rect x="30" y="100" width="15" height="20" fill="#dbeafe"/>
    <rect x="55" y="100" width="15" height="20" fill="#dbeafe"/>
    <rect x="30" y="130" width="15" height="20" fill="#dbeafe"/>
    <rect x="55" y="130" width="15" height="20" fill="#dbeafe"/>
    <rect x="75" y="150" width="25" height="30" fill="#64748b"/>
    
    <!-- 건물 2 -->
    <rect x="120" y="80" width="100" height="100" fill="#64748b"/>
    <rect x="130" y="90" width="20" height="20" fill="#dbeafe"/>
    <rect x="160" y="90" width="20" height="20" fill="#dbeafe"/>
    <rect x="190" y="90" width="20" height="20" fill="#dbeafe"/>
    <rect x="130" y="120" width="20" height="20" fill="#dbeafe"/>
    <rect x="160" y="120" width="20" height="20" fill="#dbeafe"/>
    <rect x="190" y="120" width="20" height="20" fill="#dbeafe"/>
    <rect x="150" y="150" width="40" height="30" fill="#475569"/>
    
    <!-- 공원/나무 -->
    <circle cx="280" cy="170" r="30" fill="#84cc16"/>
    <rect x="275" y="140" width="10" height="30" fill="#78350f"/>
    <circle cx="300" cy="180" r="20" fill="#84cc16"/>
    <rect x="297" y="160" width="6" height="20" fill="#78350f"/>
    <circle cx="320" cy="170" r="25" fill="#84cc16"/>
    <rect x="318" y="145" width="8" height="25" fill="#78350f"/>
  </g>
  
  <!-- 부천시 스마트 원스톱 플랫폼 로고 -->
  <g transform="translate(30, 30)">
    <rect x="0" y="0" width="200" height="50" rx="10" fill="#3b82f6"/>
    <text x="20" y="30" font-family="Arial" font-size="18" font-weight="bold" fill="white">부천 스마트 원스톱 플랫폼</text>
    <text x="30" y="45" font-family="Arial" font-size="12" fill="white">찾아가는 행정서비스</text>
  </g>
  
  <!-- 사람들 -->
  <g transform="translate(200, 240)">
    <!-- 사람 1 -->
    <circle cx="0" cy="0" r="8" fill="#f97316"/>
    <rect x="-3" y="8" width="6" height="15" fill="#f97316"/>
    <rect x="-8" y="10" width="5" height="2" fill="#f97316"/>
    <rect x="3" y="10" width="5" height="2" fill="#f97316"/>
    <rect x="-3" y="23" width="3" height="10" fill="#0f172a"/>
    <rect x="0" y="23" width="3" height="10" fill="#0f172a"/>
    
    <!-- 사람 2 -->
    <circle cx="20" cy="0" r="8" fill="#8b5cf6"/>
    <rect x="17" y="8" width="6" height="15" fill="#8b5cf6"/>
    <rect x="12" y="10" width="5" height="2" fill="#8b5cf6"/>
    <rect x="23" y="10" width="5" height="2" fill="#8b5cf6"/>
    <rect x="17" y="23" width="3" height="10" fill="#0f172a"/>
    <rect x="20" y="23" width="3" height="10" fill="#0f172a"/>
    
    <!-- 사람 3 -->
    <circle cx="40" cy="0" r="8" fill="#ec4899"/>
    <rect x="37" y="8" width="6" height="15" fill="#ec4899"/>
    <rect x="32" y="10" width="5" height="2" fill="#ec4899"/>
    <rect x="43" y="10" width="5" height="2" fill="#ec4899"/>
    <rect x="37" y="23" width="3" height="10" fill="#0f172a"/>
    <rect x="40" y="23" width="3" height="10" fill="#0f172a"/>
  </g>
  
  <!-- 말풍선/정보 패널 -->
  <g transform="translate(370, 150)">
    <rect x="0" y="0" width="120" height="80" rx="10" fill="white" stroke="#3b82f6" stroke-width="2"/>
    <path d="M0,40 L-15,50 L0,60" fill="white" stroke="#3b82f6" stroke-width="2"/>
    <text x="10" y="20" font-family="Arial" font-size="10" fill="#1e40af">찾아가는 행정서비스</text>
    <text x="10" y="35" font-family="Arial" font-size="8" fill="#334155">• 민원처리</text>
    <text x="10" y="50" font-family="Arial" font-size="8" fill="#334155">• 복지상담</text>
    <text x="10" y="65" font-family="Arial" font-size="8" fill="#334155">• 서류발급</text>
  </g>
  
  <!-- 하단 텍스트 -->
  <text x="256" y="350" font-family="Arial" font-size="16" font-weight="bold" text-anchor="middle" fill="#1e40af">부천시 찾아가는 행정서비스 - 시민 곁으로!</text>
</svg>
